<?xml version="1.0" ?>
<svg xmlns="http://www.w3.org/2000/svg" xmlns:xlink="http://www.w3.org/1999/xlink" width="996" height="198" viewBox="0 0 996 198" style="background-color:#0d1117">
  <defs>
    <style>
    .flicker {
        animation: flickerAnim 1.5s infinite alternate;
    }
    @keyframes flickerAnim {
        0% { opacity: 1; text-shadow: 0 0 10px #FFD700; }
        50% { opacity: 0.5; text-shadow: 0 0 3px #FFD700; }
        100% { opacity: 1; text-shadow: 0 0 10px #FFD700; }
    }
    .twinkle {
        animation: twinkle 2s infinite ease-in-out;
    }
    @keyframes twinkle {
        0%, 100% { opacity: 0; }
        50% { opacity: 1; }
    }
    .glow {
        animation: glowAnim 5s infinite ease-in-out;
        transform-origin: center;
    }
    @keyframes glowAnim {
        0% { r: 0; opacity: 0.1; }
        40% { r: 320; opacity: 0.4; }
        100% { r: 0; opacity: 0.1; }
    }
    .wand-move {
        animation: wandAnim 5s infinite ease-in-out;
    }
    @keyframes wandAnim {
        0% { transform: translate(0px, 0px) rotate(0deg); }
        20% { transform: translate(-3px, -5px) rotate(-5deg); }
        50% { transform: translate(3px, -2px) rotate(5deg); }
        70% { transform: translate(-2px, 2px) rotate(-3deg); }
        100% { transform: translate(0px, 0px) rotate(0deg); }
    }
    </style>
  </defs>
  <g id="grid" transform="translate(40,40)">
    <rect x="0" y="0" width="12" height="12" rx="2" fill="#161b22"/>
    <rect x="14" y="0" width="12" height="12" rx="2" fill="#161b22"/>
    <rect x="28" y="0" width="12" height="12" rx="2" fill="#161b22"/>
    <rect x="42" y="0" width="12" height="12" rx="2" fill="#161b22"/>
    <rect x="56" y="0" width="12" height="12" rx="2" fill="#161b22"/>
    <rect x="70" y="0" width="12" height="12" rx="2" fill="#161b22"/>
    <rect x="84" y="0" width="12" height="12" rx="2" fill="#161b22"/>
    <rect x="98" y="0" width="12" height="12" rx="2" fill="#161b22"/>
    <rect x="112" y="0" width="12" height="12" rx="2" fill="#161b22"/>
    <rect x="126" y="0" width="12" height="12" rx="2" fill="#161b22"/>
    <rect x="140" y="0" width="12" height="12" rx="2" fill="#161b22"/>
    <rect x="154" y="0" width="12" height="12" rx="2" fill="#161b22">
      <animate attributeName="fill" values="#161b22;#2ecc71" dur="0.6s" begin="3.25s" fill="freeze"/>
    </rect>
    <rect x="168" y="0" width="12" height="12" rx="2" fill="#161b22"/>
    <rect x="182" y="0" width="12" height="12" rx="2" fill="#161b22">
      <animate attributeName="fill" values="#161b22;#2ecc71" dur="0.6s" begin="3.17s" fill="freeze"/>
    </rect>
    <rect x="196" y="0" width="12" height="12" rx="2" fill="#161b22"/>
    <rect x="210" y="0" width="12" height="12" rx="2" fill="#161b22"/>
    <rect x="224" y="0" width="12" height="12" rx="2" fill="#161b22"/>
    <rect x="238" y="0" width="12" height="12" rx="2" fill="#161b22"/>
    <rect x="252" y="0" width="12" height="12" rx="2" fill="#161b22"/>
    <rect x="266" y="0" width="12" height="12" rx="2" fill="#161b22"/>
    <rect x="280" y="0" width="12" height="12" rx="2" fill="#161b22"/>
    <rect x="294" y="0" width="12" height="12" rx="2" fill="#161b22"/>
    <rect x="308" y="0" width="12" height="12" rx="2" fill="#161b22"/>
    <rect x="322" y="0" width="12" height="12" rx="2" fill="#161b22"/>
    <rect x="336" y="0" width="12" height="12" rx="2" fill="#161b22"/>
    <rect x="350" y="0" width="12" height="12" rx="2" fill="#161b22"/>
    <rect x="364" y="0" width="12" height="12" rx="2" fill="#161b22"/>
    <rect x="378" y="0" width="12" height="12" rx="2" fill="#161b22"/>
    <rect x="392" y="0" width="12" height="12" rx="2" fill="#161b22"/>
    <rect x="406" y="0" width="12" height="12" rx="2" fill="#161b22"/>
    <rect x="420" y="0" width="12" height="12" rx="2" fill="#161b22"/>
    <rect x="434" y="0" width="12" height="12" rx="2" fill="#161b22"/>
    <rect x="448" y="0" width="12" height="12" rx="2" fill="#161b22"/>
    <rect x="462" y="0" width="12" height="12" rx="2" fill="#161b22"/>
    <rect x="476" y="0" width="12" height="12" rx="2" fill="#161b22"/>
    <rect x="490" y="0" width="12" height="12" rx="2" fill="#161b22"/>
    <rect x="504" y="0" width="12" height="12" rx="2" fill="#161b22"/>
    <rect x="518" y="0" width="12" height="12" rx="2" fill="#161b22"/>
    <rect x="532" y="0" width="12" height="12" rx="2" fill="#161b22"/>
    <rect x="546" y="0" width="12" height="12" rx="2" fill="#161b22"/>
    <rect x="560" y="0" width="12" height="12" rx="2" fill="#161b22"/>
    <rect x="574" y="0" width="12" height="12" rx="2" fill="#161b22">
      <animate attributeName="fill" values="#161b22;#2ecc71" dur="0.6s" begin="2.79s" fill="freeze"/>
    </rect>
    <rect x="588" y="0" width="12" height="12" rx="2" fill="#161b22"/>
    <rect x="602" y="0" width="12" height="12" rx="2" fill="#161b22"/>
    <rect x="616" y="0" width="12" height="12" rx="2" fill="#161b22"/>
    <rect x="630" y="0" width="12" height="12" rx="2" fill="#161b22"/>
    <rect x="644" y="0" width="12" height="12" rx="2" fill="#161b22"/>
    <rect x="658" y="0" width="12" height="12" rx="2" fill="#161b22"/>
    <rect x="672" y="0" width="12" height="12" rx="2" fill="#161b22"/>
    <rect x="686" y="0" width="12" height="12" rx="2" fill="#161b22"/>
    <rect x="700" y="0" width="12" height="12" rx="2" fill="#161b22"/>
    <rect x="714" y="0" width="12" height="12" rx="2" fill="#161b22"/>
    <rect x="728" y="0" width="12" height="12" rx="2" fill="#161b22"/>
    <rect x="742" y="0" width="12" height="12" rx="2" fill="#161b22"/>
    <rect x="756" y="0" width="12" height="12" rx="2" fill="#161b22">
      <animate attributeName="fill" values="#161b22;#2ecc71" dur="0.6s" begin="3.29s" fill="freeze"/>
    </rect>
    <rect x="770" y="0" width="12" height="12" rx="2" fill="#161b22"/>
    <rect x="784" y="0" width="12" height="12" rx="2" fill="#161b22">
      <animate attributeName="fill" values="#161b22;#2ecc71" dur="0.6s" begin="3.37s" fill="freeze"/>
    </rect>
    <rect x="798" y="0" width="12" height="12" rx="2" fill="#161b22"/>
    <rect x="812" y="0" width="12" height="12" rx="2" fill="#161b22">
      <animate attributeName="fill" values="#161b22;#2ecc71" dur="0.6s" begin="3.45s" fill="freeze"/>
    </rect>
    <rect x="826" y="0" width="12" height="12" rx="2" fill="#161b22"/>
    <rect x="840" y="0" width="12" height="12" rx="2" fill="#161b22"/>
    <rect x="854" y="0" width="12" height="12" rx="2" fill="#161b22"/>
    <rect x="868" y="0" width="12" height="12" rx="2" fill="#161b22"/>
    <rect x="882" y="0" width="12" height="12" rx="2" fill="#161b22"/>
    <rect x="0" y="14" width="12" height="12" rx="2" fill="#161b22"/>
    <rect x="14" y="14" width="12" height="12" rx="2" fill="#161b22"/>
    <rect x="28" y="14" width="12" height="12" rx="2" fill="#161b22">
      <animate attributeName="fill" values="#161b22;#2ecc71" dur="0.6s" begin="3.60s" fill="freeze"/>
    </rect>
    <rect x="42" y="14" width="12" height="12" rx="2" fill="#161b22"/>
    <rect x="56" y="14" width="12" height="12" rx="2" fill="#161b22"/>
    <rect x="70" y="14" width="12" height="12" rx="2" fill="#161b22">
      <animate attributeName="fill" values="#161b22;#2ecc71" dur="0.6s" begin="3.48s" fill="freeze"/>
    </rect>
    <rect x="84" y="14" width="12" height="12" rx="2" fill="#161b22"/>
    <rect x="98" y="14" width="12" height="12" rx="2" fill="#161b22"/>
    <rect x="112" y="14" width="12" height="12" rx="2" fill="#161b22">
      <animate attributeName="fill" values="#161b22;#2ecc71" dur="0.6s" begin="3.37s" fill="freeze"/>
    </rect>
    <rect x="126" y="14" width="12" height="12" rx="2" fill="#161b22">
      <animate attributeName="fill" values="#161b22;#2ecc71" dur="0.6s" begin="3.33s" fill="freeze"/>
    </rect>
    <rect x="140" y="14" width="12" height="12" rx="2" fill="#161b22"/>
    <rect x="154" y="14" width="12" height="12" rx="2" fill="#161b22">
      <animate attributeName="fill" values="#161b22;#2ecc71" dur="0.6s" begin="3.25s" fill="freeze"/>
    </rect>
    <rect x="168" y="14" width="12" height="12" rx="2" fill="#161b22">
      <animate attributeName="fill" values="#161b22;#2ecc71" dur="0.6s" begin="3.21s" fill="freeze"/>
    </rect>
    <rect x="182" y="14" width="12" height="12" rx="2" fill="#161b22"/>
    <rect x="196" y="14" width="12" height="12" rx="2" fill="#161b22"/>
    <rect x="210" y="14" width="12" height="12" rx="2" fill="#161b22"/>
    <rect x="224" y="14" width="12" height="12" rx="2" fill="#161b22"/>
    <rect x="238" y="14" width="12" height="12" rx="2" fill="#161b22"/>
    <rect x="252" y="14" width="12" height="12" rx="2" fill="#161b22"/>
    <rect x="266" y="14" width="12" height="12" rx="2" fill="#161b22"/>
    <rect x="280" y="14" width="12" height="12" rx="2" fill="#161b22"/>
    <rect x="294" y="14" width="12" height="12" rx="2" fill="#161b22"/>
    <rect x="308" y="14" width="12" height="12" rx="2" fill="#161b22"/>
    <rect x="322" y="14" width="12" height="12" rx="2" fill="#161b22"/>
    <rect x="336" y="14" width="12" height="12" rx="2" fill="#161b22"/>
    <rect x="350" y="14" width="12" height="12" rx="2" fill="#161b22">
      <animate attributeName="fill" values="#161b22;#2ecc71" dur="0.6s" begin="2.70s" fill="freeze"/>
    </rect>
    <rect x="364" y="14" width="12" height="12" rx="2" fill="#161b22"/>
    <rect x="378" y="14" width="12" height="12" rx="2" fill="#161b22"/>
    <rect x="392" y="14" width="12" height="12" rx="2" fill="#161b22"/>
    <rect x="406" y="14" width="12" height="12" rx="2" fill="#161b22"/>
    <rect x="420" y="14" width="12" height="12" rx="2" fill="#161b22">
      <animate attributeName="fill" values="#161b22;#2ecc71" dur="0.6s" begin="2.53s" fill="freeze"/>
    </rect>
    <rect x="434" y="14" width="12" height="12" rx="2" fill="#161b22"/>
    <rect x="448" y="14" width="12" height="12" rx="2" fill="#161b22"/>
    <rect x="462" y="14" width="12" height="12" rx="2" fill="#161b22"/>
    <rect x="476" y="14" width="12" height="12" rx="2" fill="#161b22"/>
    <rect x="490" y="14" width="12" height="12" rx="2" fill="#161b22"/>
    <rect x="504" y="14" width="12" height="12" rx="2" fill="#161b22"/>
    <rect x="518" y="14" width="12" height="12" rx="2" fill="#161b22"/>
    <rect x="532" y="14" width="12" height="12" rx="2" fill="#161b22"/>
    <rect x="546" y="14" width="12" height="12" rx="2" fill="#161b22"/>
    <rect x="560" y="14" width="12" height="12" rx="2" fill="#161b22"/>
    <rect x="574" y="14" width="12" height="12" rx="2" fill="#161b22"/>
    <rect x="588" y="14" width="12" height="12" rx="2" fill="#161b22"/>
    <rect x="602" y="14" width="12" height="12" rx="2" fill="#161b22">
      <animate attributeName="fill" values="#161b22;#2ecc71" dur="0.6s" begin="2.85s" fill="freeze"/>
    </rect>
    <rect x="616" y="14" width="12" height="12" rx="2" fill="#161b22"/>
    <rect x="630" y="14" width="12" height="12" rx="2" fill="#161b22"/>
    <rect x="644" y="14" width="12" height="12" rx="2" fill="#161b22"/>
    <rect x="658" y="14" width="12" height="12" rx="2" fill="#161b22"/>
    <rect x="672" y="14" width="12" height="12" rx="2" fill="#161b22"/>
    <rect x="686" y="14" width="12" height="12" rx="2" fill="#161b22"/>
    <rect x="700" y="14" width="12" height="12" rx="2" fill="#161b22"/>
    <rect x="714" y="14" width="12" height="12" rx="2" fill="#161b22"/>
    <rect x="728" y="14" width="12" height="12" rx="2" fill="#161b22"/>
    <rect x="742" y="14" width="12" height="12" rx="2" fill="#161b22"/>
    <rect x="756" y="14" width="12" height="12" rx="2" fill="#161b22"/>
    <rect x="770" y="14" width="12" height="12" rx="2" fill="#161b22">
      <animate attributeName="fill" values="#161b22;#2ecc71" dur="0.6s" begin="3.33s" fill="freeze"/>
    </rect>
    <rect x="784" y="14" width="12" height="12" rx="2" fill="#161b22"/>
    <rect x="798" y="14" width="12" height="12" rx="2" fill="#161b22"/>
    <rect x="812" y="14" width="12" height="12" rx="2" fill="#161b22"/>
    <rect x="826" y="14" width="12" height="12" rx="2" fill="#161b22"/>
    <rect x="840" y="14" width="12" height="12" rx="2" fill="#161b22"/>
    <rect x="854" y="14" width="12" height="12" rx="2" fill="#161b22">
      <animate attributeName="fill" values="#161b22;#2ecc71" dur="0.6s" begin="3.56s" fill="freeze"/>
    </rect>
    <rect x="868" y="14" width="12" height="12" rx="2" fill="#161b22"/>
    <rect x="882" y="14" width="12" height="12" rx="2" fill="#161b22"/>
    <rect x="0" y="28" width="12" height="12" rx="2" fill="#161b22"/>
    <rect x="14" y="28" width="12" height="12" rx="2" fill="#161b22">
      <animate attributeName="fill" values="#161b22;#2ecc71" dur="0.6s" begin="3.64s" fill="freeze"/>
    </rect>
    <rect x="28" y="28" width="12" height="12" rx="2" fill="#161b22"/>
    <rect x="42" y="28" width="12" height="12" rx="2" fill="#161b22"/>
    <rect x="56" y="28" width="12" height="12" rx="2" fill="#161b22"/>
    <rect x="70" y="28" width="12" height="12" rx="2" fill="#161b22">
      <animate attributeName="fill" values="#161b22;#2ecc71" dur="0.6s" begin="3.48s" fill="freeze"/>
    </rect>
    <rect x="84" y="28" width="12" height="12" rx="2" fill="#161b22"/>
    <rect x="98" y="28" width="12" height="12" rx="2" fill="#161b22"/>
    <rect x="112" y="28" width="12" height="12" rx="2" fill="#161b22"/>
    <rect x="126" y="28" width="12" height="12" rx="2" fill="#161b22"/>
    <rect x="140" y="28" width="12" height="12" rx="2" fill="#161b22"/>
    <rect x="154" y="28" width="12" height="12" rx="2" fill="#161b22"/>
    <rect x="168" y="28" width="12" height="12" rx="2" fill="#161b22"/>
    <rect x="182" y="28" width="12" height="12" rx="2" fill="#161b22"/>
    <rect x="196" y="28" width="12" height="12" rx="2" fill="#161b22"/>
    <rect x="210" y="28" width="12" height="12" rx="2" fill="#161b22"/>
    <rect x="224" y="28" width="12" height="12" rx="2" fill="#161b22"/>
    <rect x="238" y="28" width="12" height="12" rx="2" fill="#161b22"/>
    <rect x="252" y="28" width="12" height="12" rx="2" fill="#161b22"/>
    <rect x="266" y="28" width="12" height="12" rx="2" fill="#161b22"/>
    <rect x="280" y="28" width="12" height="12" rx="2" fill="#161b22"/>
    <rect x="294" y="28" width="12" height="12" rx="2" fill="#161b22"/>
    <rect x="308" y="28" width="12" height="12" rx="2" fill="#161b22"/>
    <rect x="322" y="28" width="12" height="12" rx="2" fill="#161b22"/>
    <rect x="336" y="28" width="12" height="12" rx="2" fill="#161b22"/>
    <rect x="350" y="28" width="12" height="12" rx="2" fill="#161b22"/>
    <rect x="364" y="28" width="12" height="12" rx="2" fill="#161b22"/>
    <rect x="378" y="28" width="12" height="12" rx="2" fill="#161b22"/>
    <rect x="392" y="28" width="12" height="12" rx="2" fill="#161b22"/>
    <rect x="406" y="28" width="12" height="12" rx="2" fill="#161b22"/>
    <rect x="420" y="28" width="12" height="12" rx="2" fill="#161b22"/>
    <rect x="434" y="28" width="12" height="12" rx="2" fill="#161b22"/>
    <rect x="448" y="28" width="12" height="12" rx="2" fill="#161b22"/>
    <rect x="462" y="28" width="12" height="12" rx="2" fill="#161b22"/>
    <rect x="476" y="28" width="12" height="12" rx="2" fill="#161b22"/>
    <rect x="490" y="28" width="12" height="12" rx="2" fill="#161b22"/>
    <rect x="504" y="28" width="12" height="12" rx="2" fill="#161b22"/>
    <rect x="518" y="28" width="12" height="12" rx="2" fill="#161b22"/>
    <rect x="532" y="28" width="12" height="12" rx="2" fill="#161b22"/>
    <rect x="546" y="28" width="12" height="12" rx="2" fill="#161b22"/>
    <rect x="560" y="28" width="12" height="12" rx="2" fill="#161b22"/>
    <rect x="574" y="28" width="12" height="12" rx="2" fill="#161b22"/>
    <rect x="588" y="28" width="12" height="12" rx="2" fill="#161b22"/>
    <rect x="602" y="28" width="12" height="12" rx="2" fill="#161b22"/>
    <rect x="616" y="28" width="12" height="12" rx="2" fill="#161b22"/>
    <rect x="630" y="28" width="12" height="12" rx="2" fill="#161b22"/>
    <rect x="644" y="28" width="12" height="12" rx="2" fill="#161b22"/>
    <rect x="658" y="28" width="12" height="12" rx="2" fill="#161b22"/>
    <rect x="672" y="28" width="12" height="12" rx="2" fill="#161b22"/>
    <rect x="686" y="28" width="12" height="12" rx="2" fill="#161b22"/>
    <rect x="700" y="28" width="12" height="12" rx="2" fill="#161b22"/>
    <rect x="714" y="28" width="12" height="12" rx="2" fill="#161b22"/>
    <rect x="728" y="28" width="12" height="12" rx="2" fill="#161b22"/>
    <rect x="742" y="28" width="12" height="12" rx="2" fill="#161b22"/>
    <rect x="756" y="28" width="12" height="12" rx="2" fill="#161b22"/>
    <rect x="770" y="28" width="12" height="12" rx="2" fill="#161b22">
      <animate attributeName="fill" values="#161b22;#2ecc71" dur="0.6s" begin="3.32s" fill="freeze"/>
    </rect>
    <rect x="784" y="28" width="12" height="12" rx="2" fill="#161b22">
      <animate attributeName="fill" values="#161b22;#2ecc71" dur="0.6s" begin="3.36s" fill="freeze"/>
    </rect>
    <rect x="798" y="28" width="12" height="12" rx="2" fill="#161b22"/>
    <rect x="812" y="28" width="12" height="12" rx="2" fill="#161b22"/>
    <rect x="826" y="28" width="12" height="12" rx="2" fill="#161b22"/>
    <rect x="840" y="28" width="12" height="12" rx="2" fill="#161b22"/>
    <rect x="854" y="28" width="12" height="12" rx="2" fill="#161b22"/>
    <rect x="868" y="28" width="12" height="12" rx="2" fill="#161b22"/>
    <rect x="882" y="28" width="12" height="12" rx="2" fill="#161b22"/>
    <rect x="0" y="42" width="12" height="12" rx="2" fill="#161b22"/>
    <rect x="14" y="42" width="12" height="12" rx="2" fill="#161b22"/>
    <rect x="28" y="42" width="12" height="12" rx="2" fill="#161b22"/>
    <rect x="42" y="42" width="12" height="12" rx="2" fill="#161b22"/>
    <rect x="56" y="42" width="12" height="12" rx="2" fill="#161b22"/>
    <rect x="70" y="42" width="12" height="12" rx="2" fill="#161b22"/>
    <rect x="84" y="42" width="12" height="12" rx="2" fill="#161b22"/>
    <rect x="98" y="42" width="12" height="12" rx="2" fill="#161b22"/>
    <rect x="112" y="42" width="12" height="12" rx="2" fill="#161b22"/>
    <rect x="126" y="42" width="12" height="12" rx="2" fill="#161b22"/>
    <rect x="140" y="42" width="12" height="12" rx="2" fill="#161b22"/>
    <rect x="154" y="42" width="12" height="12" rx="2" fill="#161b22"/>
    <rect x="168" y="42" width="12" height="12" rx="2" fill="#161b22"/>
    <rect x="182" y="42" width="12" height="12" rx="2" fill="#161b22"/>
    <rect x="196" y="42" width="12" height="12" rx="2" fill="#161b22"/>
    <rect x="210" y="42" width="12" height="12" rx="2" fill="#161b22"/>
    <rect x="224" y="42" width="12" height="12" rx="2" fill="#161b22"/>
    <rect x="238" y="42" width="12" height="12" rx="2" fill="#161b22"/>
    <rect x="252" y="42" width="12" height="12" rx="2" fill="#161b22"/>
    <rect x="266" y="42" width="12" height="12" rx="2" fill="#161b22"/>
    <rect x="280" y="42" width="12" height="12" rx="2" fill="#161b22"/>
    <rect x="294" y="42" width="12" height="12" rx="2" fill="#161b22"/>
    <rect x="308" y="42" width="12" height="12" rx="2" fill="#161b22"/>
    <rect x="322" y="42" width="12" height="12" rx="2" fill="#161b22"/>
    <rect x="336" y="42" width="12" height="12" rx="2" fill="#161b22"/>
    <rect x="350" y="42" width="12" height="12" rx="2" fill="#161b22"/>
    <rect x="364" y="42" width="12" height="12" rx="2" fill="#161b22"/>
    <rect x="378" y="42" width="12" height="12" rx="2" fill="#161b22"/>
    <rect x="392" y="42" width="12" height="12" rx="2" fill="#161b22"/>
    <rect x="406" y="42" width="12" height="12" rx="2" fill="#161b22">
      <animate attributeName="fill" values="#161b22;#2ecc71" dur="0.6s" begin="2.52s" fill="freeze"/>
    </rect>
    <rect x="420" y="42" width="12" height="12" rx="2" fill="#161b22"/>
    <rect x="434" y="42" width="12" height="12" rx="2" fill="#161b22"/>
    <rect x="448" y="42" width="12" height="12" rx="2" fill="#161b22"/>
    <rect x="462" y="42" width="12" height="12" rx="2" fill="#161b22"/>
    <rect x="476" y="42" width="12" height="12" rx="2" fill="#161b22"/>
    <rect x="490" y="42" width="12" height="12" rx="2" fill="#161b22"/>
    <rect x="504" y="42" width="12" height="12" rx="2" fill="#161b22"/>
    <rect x="518" y="42" width="12" height="12" rx="2" fill="#161b22"/>
    <rect x="532" y="42" width="12" height="12" rx="2" fill="#161b22"/>
    <rect x="546" y="42" width="12" height="12" rx="2" fill="#161b22"/>
    <rect x="560" y="42" width="12" height="12" rx="2" fill="#161b22"/>
    <rect x="574" y="42" width="12" height="12" rx="2" fill="#161b22"/>
    <rect x="588" y="42" width="12" height="12" rx="2" fill="#161b22"/>
    <rect x="602" y="42" width="12" height="12" rx="2" fill="#161b22">
      <animate attributeName="fill" values="#161b22;#2ecc71" dur="0.6s" begin="2.84s" fill="freeze"/>
    </rect>
    <rect x="616" y="42" width="12" height="12" rx="2" fill="#161b22"/>
    <rect x="630" y="42" width="12" height="12" rx="2" fill="#161b22"/>
    <rect x="644" y="42" width="12" height="12" rx="2" fill="#161b22"/>
    <rect x="658" y="42" width="12" height="12" rx="2" fill="#161b22"/>
    <rect x="672" y="42" width="12" height="12" rx="2" fill="#161b22"/>
    <rect x="686" y="42" width="12" height="12" rx="2" fill="#161b22"/>
    <rect x="700" y="42" width="12" height="12" rx="2" fill="#161b22"/>
    <rect x="714" y="42" width="12" height="12" rx="2" fill="#161b22"/>
    <rect x="728" y="42" width="12" height="12" rx="2" fill="#161b22">
      <animate attributeName="fill" values="#161b22;#2ecc71" dur="0.6s" begin="3.20s" fill="freeze"/>
    </rect>
    <rect x="742" y="42" width="12" height="12" rx="2" fill="#161b22">
      <animate attributeName="fill" values="#161b22;#2ecc71" dur="0.6s" begin="3.24s" fill="freeze"/>
    </rect>
    <rect x="756" y="42" width="12" height="12" rx="2" fill="#161b22"/>
    <rect x="770" y="42" width="12" height="12" rx="2" fill="#161b22">
      <animate attributeName="fill" values="#161b22;#2ecc71" dur="0.6s" begin="3.32s" fill="freeze"/>
    </rect>
    <rect x="784" y="42" width="12" height="12" rx="2" fill="#161b22"/>
    <rect x="798" y="42" width="12" height="12" rx="2" fill="#161b22"/>
    <rect x="812" y="42" width="12" height="12" rx="2" fill="#161b22"/>
    <rect x="826" y="42" width="12" height="12" rx="2" fill="#161b22"/>
    <rect x="840" y="42" width="12" height="12" rx="2" fill="#161b22">
      <animate attributeName="fill" values="#161b22;#2ecc71" dur="0.6s" begin="3.52s" fill="freeze"/>
    </rect>
    <rect x="854" y="42" width="12" height="12" rx="2" fill="#161b22"/>
    <rect x="868" y="42" width="12" height="12" rx="2" fill="#161b22"/>
    <rect x="882" y="42" width="12" height="12" rx="2" fill="#161b22"/>
    <rect x="0" y="56" width="12" height="12" rx="2" fill="#161b22"/>
    <rect x="14" y="56" width="12" height="12" rx="2" fill="#161b22"/>
    <rect x="28" y="56" width="12" height="12" rx="2" fill="#161b22"/>
    <rect x="42" y="56" width="12" height="12" rx="2" fill="#161b22"/>
    <rect x="56" y="56" width="12" height="12" rx="2" fill="#161b22"/>
    <rect x="70" y="56" width="12" height="12" rx="2" fill="#161b22"/>
    <rect x="84" y="56" width="12" height="12" rx="2" fill="#161b22"/>
    <rect x="98" y="56" width="12" height="12" rx="2" fill="#161b22"/>
    <rect x="112" y="56" width="12" height="12" rx="2" fill="#161b22"/>
    <rect x="126" y="56" width="12" height="12" rx="2" fill="#161b22"/>
    <rect x="140" y="56" width="12" height="12" rx="2" fill="#161b22"/>
    <rect x="154" y="56" width="12" height="12" rx="2" fill="#161b22"/>
    <rect x="168" y="56" width="12" height="12" rx="2" fill="#161b22"/>
    <rect x="182" y="56" width="12" height="12" rx="2" fill="#161b22"/>
    <rect x="196" y="56" width="12" height="12" rx="2" fill="#161b22"/>
    <rect x="210" y="56" width="12" height="12" rx="2" fill="#161b22"/>
    <rect x="224" y="56" width="12" height="12" rx="2" fill="#161b22"/>
    <rect x="238" y="56" width="12" height="12" rx="2" fill="#161b22"/>
    <rect x="252" y="56" width="12" height="12" rx="2" fill="#161b22"/>
    <rect x="266" y="56" width="12" height="12" rx="2" fill="#161b22"/>
    <rect x="280" y="56" width="12" height="12" rx="2" fill="#161b22"/>
    <rect x="294" y="56" width="12" height="12" rx="2" fill="#161b22"/>
    <rect x="308" y="56" width="12" height="12" rx="2" fill="#161b22"/>
    <rect x="322" y="56" width="12" height="12" rx="2" fill="#161b22"/>
    <rect x="336" y="56" width="12" height="12" rx="2" fill="#161b22"/>
    <rect x="350" y="56" width="12" height="12" rx="2" fill="#161b22"/>
    <rect x="364" y="56" width="12" height="12" rx="2" fill="#161b22"/>
    <rect x="378" y="56" width="12" height="12" rx="2" fill="#161b22"/>
    <rect x="392" y="56" width="12" height="12" rx="2" fill="#161b22"/>
    <rect x="406" y="56" width="12" height="12" rx="2" fill="#161b22"/>
    <rect x="420" y="56" width="12" height="12" rx="2" fill="#161b22"/>
    <rect x="434" y="56" width="12" height="12" rx="2" fill="#161b22"/>
    <rect x="448" y="56" width="12" height="12" rx="2" fill="#161b22"/>
    <rect x="462" y="56" width="12" height="12" rx="2" fill="#161b22"/>
    <rect x="476" y="56" width="12" height="12" rx="2" fill="#161b22"/>
    <rect x="490" y="56" width="12" height="12" rx="2" fill="#161b22"/>
    <rect x="504" y="56" width="12" height="12" rx="2" fill="#161b22"/>
    <rect x="518" y="56" width="12" height="12" rx="2" fill="#161b22"/>
    <rect x="532" y="56" width="12" height="12" rx="2" fill="#161b22"/>
    <rect x="546" y="56" width="12" height="12" rx="2" fill="#161b22"/>
    <rect x="560" y="56" width="12" height="12" rx="2" fill="#161b22"/>
    <rect x="574" y="56" width="12" height="12" rx="2" fill="#161b22">
      <animate attributeName="fill" values="#161b22;#2ecc71" dur="0.6s" begin="2.76s" fill="freeze"/>
    </rect>
    <rect x="588" y="56" width="12" height="12" rx="2" fill="#161b22"/>
    <rect x="602" y="56" width="12" height="12" rx="2" fill="#161b22"/>
    <rect x="616" y="56" width="12" height="12" rx="2" fill="#161b22"/>
    <rect x="630" y="56" width="12" height="12" rx="2" fill="#161b22"/>
    <rect x="644" y="56" width="12" height="12" rx="2" fill="#161b22"/>
    <rect x="658" y="56" width="12" height="12" rx="2" fill="#161b22"/>
    <rect x="672" y="56" width="12" height="12" rx="2" fill="#161b22"/>
    <rect x="686" y="56" width="12" height="12" rx="2" fill="#161b22"/>
    <rect x="700" y="56" width="12" height="12" rx="2" fill="#161b22"/>
    <rect x="714" y="56" width="12" height="12" rx="2" fill="#161b22"/>
    <rect x="728" y="56" width="12" height="12" rx="2" fill="#161b22"/>
    <rect x="742" y="56" width="12" height="12" rx="2" fill="#161b22"/>
    <rect x="756" y="56" width="12" height="12" rx="2" fill="#161b22"/>
    <rect x="770" y="56" width="12" height="12" rx="2" fill="#161b22"/>
    <rect x="784" y="56" width="12" height="12" rx="2" fill="#161b22"/>
    <rect x="798" y="56" width="12" height="12" rx="2" fill="#161b22"/>
    <rect x="812" y="56" width="12" height="12" rx="2" fill="#161b22"/>
    <rect x="826" y="56" width="12" height="12" rx="2" fill="#161b22"/>
    <rect x="840" y="56" width="12" height="12" rx="2" fill="#161b22"/>
    <rect x="854" y="56" width="12" height="12" rx="2" fill="#161b22"/>
    <rect x="868" y="56" width="12" height="12" rx="2" fill="#161b22"/>
    <rect x="882" y="56" width="12" height="12" rx="2" fill="#161b22"/>
    <rect x="0" y="70" width="12" height="12" rx="2" fill="#161b22"/>
    <rect x="14" y="70" width="12" height="12" rx="2" fill="#161b22"/>
    <rect x="28" y="70" width="12" height="12" rx="2" fill="#161b22">
      <animate attributeName="fill" values="#161b22;#2ecc71" dur="0.6s" begin="3.60s" fill="freeze"/>
    </rect>
    <rect x="42" y="70" width="12" height="12" rx="2" fill="#161b22"/>
    <rect x="56" y="70" width="12" height="12" rx="2" fill="#161b22"/>
    <rect x="70" y="70" width="12" height="12" rx="2" fill="#161b22"/>
    <rect x="84" y="70" width="12" height="12" rx="2" fill="#161b22"/>
    <rect x="98" y="70" width="12" height="12" rx="2" fill="#161b22"/>
    <rect x="112" y="70" width="12" height="12" rx="2" fill="#161b22"/>
    <rect x="126" y="70" width="12" height="12" rx="2" fill="#161b22"/>
    <rect x="140" y="70" width="12" height="12" rx="2" fill="#161b22"/>
    <rect x="154" y="70" width="12" height="12" rx="2" fill="#161b22"/>
    <rect x="168" y="70" width="12" height="12" rx="2" fill="#161b22"/>
    <rect x="182" y="70" width="12" height="12" rx="2" fill="#161b22"/>
    <rect x="196" y="70" width="12" height="12" rx="2" fill="#161b22"/>
    <rect x="210" y="70" width="12" height="12" rx="2" fill="#161b22"/>
    <rect x="224" y="70" width="12" height="12" rx="2" fill="#161b22"/>
    <rect x="238" y="70" width="12" height="12" rx="2" fill="#161b22"/>
    <rect x="252" y="70" width="12" height="12" rx="2" fill="#161b22"/>
    <rect x="266" y="70" width="12" height="12" rx="2" fill="#161b22"/>
    <rect x="280" y="70" width="12" height="12" rx="2" fill="#161b22"/>
    <rect x="294" y="70" width="12" height="12" rx="2" fill="#161b22"/>
    <rect x="308" y="70" width="12" height="12" rx="2" fill="#161b22"/>
    <rect x="322" y="70" width="12" height="12" rx="2" fill="#161b22"/>
    <rect x="336" y="70" width="12" height="12" rx="2" fill="#161b22"/>
    <rect x="350" y="70" width="12" height="12" rx="2" fill="#161b22"/>
    <rect x="364" y="70" width="12" height="12" rx="2" fill="#161b22"/>
    <rect x="378" y="70" width="12" height="12" rx="2" fill="#161b22"/>
    <rect x="392" y="70" width="12" height="12" rx="2" fill="#161b22"/>
    <rect x="406" y="70" width="12" height="12" rx="2" fill="#161b22"/>
    <rect x="420" y="70" width="12" height="12" rx="2" fill="#161b22"/>
    <rect x="434" y="70" width="12" height="12" rx="2" fill="#161b22"/>
    <rect x="448" y="70" width="12" height="12" rx="2" fill="#161b22"/>
    <rect x="462" y="70" width="12" height="12" rx="2" fill="#161b22"/>
    <rect x="476" y="70" width="12" height="12" rx="2" fill="#161b22"/>
    <rect x="490" y="70" width="12" height="12" rx="2" fill="#161b22"/>
    <rect x="504" y="70" width="12" height="12" rx="2" fill="#161b22"/>
    <rect x="518" y="70" width="12" height="12" rx="2" fill="#161b22"/>
    <rect x="532" y="70" width="12" height="12" rx="2" fill="#161b22"/>
    <rect x="546" y="70" width="12" height="12" rx="2" fill="#161b22"/>
    <rect x="560" y="70" width="12" height="12" rx="2" fill="#161b22"/>
    <rect x="574" y="70" width="12" height="12" rx="2" fill="#161b22"/>
    <rect x="588" y="70" width="12" height="12" rx="2" fill="#161b22"/>
    <rect x="602" y="70" width="12" height="12" rx="2" fill="#161b22"/>
    <rect x="616" y="70" width="12" height="12" rx="2" fill="#161b22"/>
    <rect x="630" y="70" width="12" height="12" rx="2" fill="#161b22"/>
    <rect x="644" y="70" width="12" height="12" rx="2" fill="#161b22"/>
    <rect x="658" y="70" width="12" height="12" rx="2" fill="#161b22"/>
    <rect x="672" y="70" width="12" height="12" rx="2" fill="#161b22"/>
    <rect x="686" y="70" width="12" height="12" rx="2" fill="#161b22"/>
    <rect x="700" y="70" width="12" height="12" rx="2" fill="#161b22"/>
    <rect x="714" y="70" width="12" height="12" rx="2" fill="#161b22"/>
    <rect x="728" y="70" width="12" height="12" rx="2" fill="#161b22"/>
    <rect x="742" y="70" width="12" height="12" rx="2" fill="#161b22">
      <animate attributeName="fill" values="#161b22;#2ecc71" dur="0.6s" begin="3.24s" fill="freeze"/>
    </rect>
    <rect x="756" y="70" width="12" height="12" rx="2" fill="#161b22"/>
    <rect x="770" y="70" width="12" height="12" rx="2" fill="#161b22"/>
    <rect x="784" y="70" width="12" height="12" rx="2" fill="#161b22"/>
    <rect x="798" y="70" width="12" height="12" rx="2" fill="#161b22">
      <animate attributeName="fill" values="#161b22;#2ecc71" dur="0.6s" begin="3.40s" fill="freeze"/>
    </rect>
    <rect x="812" y="70" width="12" height="12" rx="2" fill="#161b22"/>
    <rect x="826" y="70" width="12" height="12" rx="2" fill="#161b22">
      <animate attributeName="fill" values="#161b22;#2ecc71" dur="0.6s" begin="3.48s" fill="freeze"/>
    </rect>
    <rect x="840" y="70" width="12" height="12" rx="2" fill="#161b22"/>
    <rect x="854" y="70" width="12" height="12" rx="2" fill="#161b22"/>
    <rect x="868" y="70" width="12" height="12" rx="2" fill="#161b22"/>
    <rect x="882" y="70" width="12" height="12" rx="2" fill="#161b22"/>
    <rect x="0" y="84" width="12" height="12" rx="2" fill="#161b22"/>
    <rect x="14" y="84" width="12" height="12" rx="2" fill="#161b22">
      <animate attributeName="fill" values="#161b22;#2ecc71" dur="0.6s" begin="3.64s" fill="freeze"/>
    </rect>
    <rect x="28" y="84" width="12" height="12" rx="2" fill="#161b22"/>
    <rect x="42" y="84" width="12" height="12" rx="2" fill="#161b22"/>
    <rect x="56" y="84" width="12" height="12" rx="2" fill="#161b22"/>
    <rect x="70" y="84" width="12" height="12" rx="2" fill="#161b22"/>
    <rect x="84" y="84" width="12" height="12" rx="2" fill="#161b22"/>
    <rect x="98" y="84" width="12" height="12" rx="2" fill="#161b22"/>
    <rect x="112" y="84" width="12" height="12" rx="2" fill="#161b22"/>
    <rect x="126" y="84" width="12" height="12" rx="2" fill="#161b22"/>
    <rect x="140" y="84" width="12" height="12" rx="2" fill="#161b22"/>
    <rect x="154" y="84" width="12" height="12" rx="2" fill="#161b22">
      <animate attributeName="fill" values="#161b22;#2ecc71" dur="0.6s" begin="3.25s" fill="freeze"/>
    </rect>
    <rect x="168" y="84" width="12" height="12" rx="2" fill="#161b22"/>
    <rect x="182" y="84" width="12" height="12" rx="2" fill="#161b22"/>
    <rect x="196" y="84" width="12" height="12" rx="2" fill="#161b22"/>
    <rect x="210" y="84" width="12" height="12" rx="2" fill="#161b22"/>
    <rect x="224" y="84" width="12" height="12" rx="2" fill="#161b22"/>
    <rect x="238" y="84" width="12" height="12" rx="2" fill="#161b22"/>
    <rect x="252" y="84" width="12" height="12" rx="2" fill="#161b22"/>
    <rect x="266" y="84" width="12" height="12" rx="2" fill="#161b22"/>
    <rect x="280" y="84" width="12" height="12" rx="2" fill="#161b22"/>
    <rect x="294" y="84" width="12" height="12" rx="2" fill="#161b22"/>
    <rect x="308" y="84" width="12" height="12" rx="2" fill="#161b22">
      <animate attributeName="fill" values="#161b22;#2ecc71" dur="0.6s" begin="2.81s" fill="freeze"/>
    </rect>
    <rect x="322" y="84" width="12" height="12" rx="2" fill="#161b22"/>
    <rect x="336" y="84" width="12" height="12" rx="2" fill="#161b22">
      <animate attributeName="fill" values="#161b22;#2ecc71" dur="0.6s" begin="2.74s" fill="freeze"/>
    </rect>
    <rect x="350" y="84" width="12" height="12" rx="2" fill="#161b22">
      <animate attributeName="fill" values="#161b22;#2ecc71" dur="0.6s" begin="2.70s" fill="freeze"/>
    </rect>
    <rect x="364" y="84" width="12" height="12" rx="2" fill="#161b22"/>
    <rect x="378" y="84" width="12" height="12" rx="2" fill="#161b22"/>
    <rect x="392" y="84" width="12" height="12" rx="2" fill="#161b22"/>
    <rect x="406" y="84" width="12" height="12" rx="2" fill="#161b22"/>
    <rect x="420" y="84" width="12" height="12" rx="2" fill="#161b22"/>
    <rect x="434" y="84" width="12" height="12" rx="2" fill="#161b22">
      <animate attributeName="fill" values="#161b22;#2ecc71" dur="0.6s" begin="2.51s" fill="freeze"/>
    </rect>
    <rect x="448" y="84" width="12" height="12" rx="2" fill="#161b22"/>
    <rect x="462" y="84" width="12" height="12" rx="2" fill="#161b22"/>
    <rect x="476" y="84" width="12" height="12" rx="2" fill="#161b22"/>
    <rect x="490" y="84" width="12" height="12" rx="2" fill="#161b22"/>
    <rect x="504" y="84" width="12" height="12" rx="2" fill="#161b22"/>
    <rect x="518" y="84" width="12" height="12" rx="2" fill="#161b22"/>
    <rect x="532" y="84" width="12" height="12" rx="2" fill="#161b22"/>
    <rect x="546" y="84" width="12" height="12" rx="2" fill="#161b22"/>
    <rect x="560" y="84" width="12" height="12" rx="2" fill="#161b22"/>
    <rect x="574" y="84" width="12" height="12" rx="2" fill="#161b22">
      <animate attributeName="fill" values="#161b22;#2ecc71" dur="0.6s" begin="2.77s" fill="freeze"/>
    </rect>
    <rect x="588" y="84" width="12" height="12" rx="2" fill="#161b22"/>
    <rect x="602" y="84" width="12" height="12" rx="2" fill="#161b22"/>
    <rect x="616" y="84" width="12" height="12" rx="2" fill="#161b22"/>
    <rect x="630" y="84" width="12" height="12" rx="2" fill="#161b22"/>
    <rect x="644" y="84" width="12" height="12" rx="2" fill="#161b22"/>
    <rect x="658" y="84" width="12" height="12" rx="2" fill="#161b22"/>
    <rect x="672" y="84" width="12" height="12" rx="2" fill="#161b22"/>
    <rect x="686" y="84" width="12" height="12" rx="2" fill="#161b22"/>
    <rect x="700" y="84" width="12" height="12" rx="2" fill="#161b22"/>
    <rect x="714" y="84" width="12" height="12" rx="2" fill="#161b22"/>
    <rect x="728" y="84" width="12" height="12" rx="2" fill="#161b22"/>
    <rect x="742" y="84" width="12" height="12" rx="2" fill="#161b22"/>
    <rect x="756" y="84" width="12" height="12" rx="2" fill="#161b22"/>
    <rect x="770" y="84" width="12" height="12" rx="2" fill="#161b22"/>
    <rect x="784" y="84" width="12" height="12" rx="2" fill="#161b22">
      <animate attributeName="fill" values="#161b22;#2ecc71" dur="0.6s" begin="3.37s" fill="freeze"/>
    </rect>
    <rect x="798" y="84" width="12" height="12" rx="2" fill="#161b22"/>
    <rect x="812" y="84" width="12" height="12" rx="2" fill="#161b22"/>
    <rect x="826" y="84" width="12" height="12" rx="2" fill="#161b22"/>
    <rect x="840" y="84" width="12" height="12" rx="2" fill="#161b22"/>
    <rect x="854" y="84" width="12" height="12" rx="2" fill="#161b22"/>
    <rect x="868" y="84" width="12" height="12" rx="2" fill="#161b22"/>
    <rect x="882" y="84" width="12" height="12" rx="2" fill="#161b22"/>
  </g>
  <g transform="translate(0,0)" class="wand-move">
    <line x1="448" y1="138" x2="448" y2="49" stroke="#a97c50" stroke-width="4" stroke-linecap="round"/>
    <circle cx="448" cy="49" r="4" fill="#FFD700" class="flicker"/>
  </g>
  <circle cx="448" cy="49" r="0" fill="#FFD700" opacity="0.15" class="glow"/>
  <text x="448" y="30" font-size="30" text-anchor="middle" fill="#FFD700" font-family="Georgia, serif" class="flicker">Lumos</text>
  <circle cx="454" cy="103" r="1.03" fill="#FFD700" class="twinkle"/>
  <circle cx="416" cy="35" r="0.87" fill="#FFD700" class="twinkle"/>
  <circle cx="459" cy="61" r="0.99" fill="#FFD700" class="twinkle"/>
  <circle cx="401" cy="-1" r="0.98" fill="#FFD700" class="twinkle"/>
  <circle cx="483" cy="56" r="0.81" fill="#FFD700" class="twinkle"/>
  <circle cx="444" cy="92" r="0.62" fill="#FFD700" class="twinkle"/>
  <circle cx="471" cy="8" r="1.57" fill="#FFD700" class="twinkle"/>
  <circle cx="475" cy="50" r="1.44" fill="#FFD700" class="twinkle"/>
  <circle cx="490" cy="52" r="0.75" fill="#FFD700" class="twinkle"/>
  <circle cx="410" cy="67" r="0.62" fill="#FFD700" class="twinkle"/>
  <circle cx="507" cy="61" r="1.11" fill="#FFD700" class="twinkle"/>
  <circle cx="393" cy="0" r="1.55" fill="#FFD700" class="twinkle"/>
  <circle cx="420" cy="99" r="1.49" fill="#FFD700" class="twinkle"/>
  <circle cx="486" cy="23" r="1.16" fill="#FFD700" class="twinkle"/>
  <circle cx="472" cy="-9" r="0.98" fill="#FFD700" class="twinkle"/>
  <circle cx="497" cy="-2" r="1.29" fill="#FFD700" class="twinkle"/>
  <circle cx="448" cy="65" r="1.22" fill="#FFD700" class="twinkle"/>
  <circle cx="474" cy="52" r="0.61" fill="#FFD700" class="twinkle"/>
  <circle cx="413" cy="23" r="0.77" fill="#FFD700" class="twinkle"/>
  <circle cx="440" cy="109" r="1.28" fill="#FFD700" class="twinkle"/>
  <circle cx="441" cy="32" r="1.07" fill="#FFD700" class="twinkle"/>
  <circle cx="392" cy="-11" r="1.05" fill="#FFD700" class="twinkle"/>
  <circle cx="444" cy="96" r="1.41" fill="#FFD700" class="twinkle"/>
  <circle cx="409" cy="91" r="1.10" fill="#FFD700" class="twinkle"/>
  <circle cx="424" cy="62" r="0.87" fill="#FFD700" class="twinkle"/>
  <circle cx="456" cy="38" r="1.24" fill="#FFD700" class="twinkle"/>
  <circle cx="415" cy="14" r="1.28" fill="#FFD700" class="twinkle"/>
  <circle cx="450" cy="18" r="1.41" fill="#FFD700" class="twinkle"/>
  <circle cx="415" cy="79" r="0.96" fill="#FFD700" class="twinkle"/>
  <circle cx="491" cy="31" r="1.35" fill="#FFD700" class="twinkle"/>
  <circle cx="443" cy="105" r="1.35" fill="#FFD700" class="twinkle"/>
  <circle cx="444" cy="98" r="1.06" fill="#FFD700" class="twinkle"/>
  <circle cx="456" cy="4" r="0.92" fill="#FFD700" class="twinkle"/>
  <circle cx="506" cy="35" r="1.57" fill="#FFD700" class="twinkle"/>
  <circle cx="505" cy="20" r="1.46" fill="#FFD700" class="twinkle"/>
  <circle cx="400" cy="3" r="0.95" fill="#FFD700" class="twinkle"/>
  <circle cx="407" cy="84" r="1.19" fill="#FFD700" class="twinkle"/>
  <circle cx="460" cy="85" r="1.06" fill="#FFD700" class="twinkle"/>
  <circle cx="448" cy="80" r="1.08" fill="#FFD700" class="twinkle"/>
  <circle cx="464" cy="66" r="0.99" fill="#FFD700" class="twinkle"/>
  <circle cx="490" cy="15" r="1.42" fill="#FFD700" class="twinkle"/>
  <circle cx="480" cy="54" r="1.39" fill="#FFD700" class="twinkle"/>
  <circle cx="399" cy="26" r="0.63" fill="#FFD700" class="twinkle"/>
  <circle cx="452" cy="50" r="1.51" fill="#FFD700" class="twinkle"/>
  <circle cx="415" cy="87" r="0.71" fill="#FFD700" class="twinkle"/>
  <circle cx="403" cy="64" r="0.66" fill="#FFD700" class="twinkle"/>
  <circle cx="416" cy="91" r="1.49" fill="#FFD700" class="twinkle"/>
  <circle cx="461" cy="21" r="0.77" fill="#FFD700" class="twinkle"/>
</svg>
